<svg xmlns="http://www.w3.org/2000/svg" viewBox="0 0 32 32" width="32" height="32">
  <defs>
    <linearGradient id="bg" x1="0" y1="0" x2="1" y2="1">
      <stop offset="0%" stop-color="#20232a"/>
      <stop offset="100%" stop-color="#0a0a0b"/>
    </linearGradient>
    <radialGradient id="glow" cx="50%" cy="44%" r="55%">
      <stop offset="0%" stop-color="#38bdf8" stop-opacity="0.5"/>
      <stop offset="100%" stop-color="#38bdf8" stop-opacity="0"/>
    </radialGradient>
    <linearGradient id="body" x1="0" y1="0" x2="0" y2="1">
      <stop offset="0%" stop-color="#eaf6ff"/>
      <stop offset="52%" stop-color="#3db8f5"/>
      <stop offset="100%" stop-color="#0284c7"/>
    </linearGradient>
    <linearGradient id="flame" x1="0" y1="0" x2="0" y2="1">
      <stop offset="0%" stop-color="#eaf6ff"/>
      <stop offset="100%" stop-color="#38bdf8"/>
    </linearGradient>
  </defs>

  <rect width="32" height="32" rx="7.5" fill="url(#bg)"/>
  <rect x="0.75" y="0.75" width="30.5" height="30.5" rx="6.75" fill="none" stroke="#39a9e8" stroke-opacity="0.35" stroke-width="0.9"/>
  <circle cx="16" cy="14.5" r="12" fill="url(#glow)"/>

  <path d="M12.7 20.6 C13.1 24, 16 27.6, 16 27.6 C16 27.6, 18.9 24, 19.3 20.6 Z" fill="url(#flame)"/>

  <path d="M10.4 15.2 L6.7 21.6 L12.6 19 Z" fill="#0ea5e9"/>
  <path d="M21.6 15.2 L25.3 21.6 L19.4 19 Z" fill="#0ea5e9"/>

  <path d="M16 3.4
           C20.1 7.4, 22 12, 22 15.9
           C22 19.2, 19.5 21.4, 16 22
           C12.5 21.4, 10 19.2, 10 15.9
           C10 12, 11.9 7.4, 16 3.4 Z" fill="url(#body)"/>

  <circle cx="16" cy="13" r="2.4" fill="#062a44"/>
  <circle cx="16" cy="13" r="2.4" fill="none" stroke="#eaf6ff" stroke-width="0.9"/>
  <circle cx="15.35" cy="12.35" r="0.75" fill="#eaf6ff"/>
</svg>
